<svg width="64" height="64" viewBox="0 0 64 64" xmlns="http://www.w3.org/2000/svg">
  <!-- 定义渐变色 -->
  <defs>
    <linearGradient id="gradient" x1="0%" y1="0%" x2="100%" y2="100%">
      <stop offset="0%" style="stop-color:#4F46E5;stop-opacity:1" />
      <stop offset="100%" style="stop-color:#7C3AED;stop-opacity:1" />
    </linearGradient>
    
    <linearGradient id="bolt" x1="0%" y1="0%" x2="100%" y2="100%">
      <stop offset="0%" style="stop-color:#FBBF24;stop-opacity:1" />
      <stop offset="100%" style="stop-color:#F59E0B;stop-opacity:1" />
    </linearGradient>
  </defs>
  
  <!-- 圆角方形背景 -->
  <rect width="64" height="64" rx="12" fill="url(#gradient)"/>
  
  <!-- 蜘蛛身体 -->
  <circle cx="32" cy="32" r="10" fill="#FFFFFF" opacity="0.95"/>
  
  <!-- 蜘蛛头部 -->
  <ellipse cx="32" cy="26" rx="6" ry="7" fill="#FFFFFF" opacity="0.95"/>
  
  <!-- 蜘蛛眼睛 -->
  <circle cx="29" cy="24" r="1.5" fill="url(#gradient)"/>
  <circle cx="35" cy="24" r="1.5" fill="url(#gradient)"/>
  
  <!-- 简化的蜘蛛腿 -->
  <path d="M 22 28 Q 12 24 8 20" stroke="#FFFFFF" stroke-width="2" fill="none" opacity="0.9"/>
  <path d="M 22 32 Q 10 32 6 32" stroke="#FFFFFF" stroke-width="2" fill="none" opacity="0.9"/>
  <path d="M 22 36 Q 10 40 6 44" stroke="#FFFFFF" stroke-width="2" fill="none" opacity="0.9"/>
  
  <path d="M 42 28 Q 52 24 56 20" stroke="#FFFFFF" stroke-width="2" fill="none" opacity="0.9"/>
  <path d="M 42 32 Q 54 32 58 32" stroke="#FFFFFF" stroke-width="2" fill="none" opacity="0.9"/>
  <path d="M 42 36 Q 54 40 58 44" stroke="#FFFFFF" stroke-width="2" fill="none" opacity="0.9"/>
  
  <!-- 闪电符号 -->
  <path d="M 35 30 L 28 34 L 32 34 L 26 40 L 31 35 L 28 35 L 34 30 Z" 
        fill="url(#bolt)" 
        opacity="0.95"/>
</svg>
